<?xml version="1.0" standalone="no"?>
<!DOCTYPE svg PUBLIC "-//W3C//DTD SVG 20010904//EN"
 "http://www.w3.org/TR/2001/REC-SVG-20010904/DTD/svg10.dtd">
<svg version="1.0" xmlns="http://www.w3.org/2000/svg"
 width="225.000000pt" height="225.000000pt" viewBox="0 0 225.000000 225.000000"
 preserveAspectRatio="xMidYMid meet">
<metadata>
Created by potrace 1.10, written by Peter Selinger 2001-2011
</metadata>
<g transform="translate(0.000000,225.000000) scale(0.100000,-0.100000)"
fill="#000000" stroke="none">
<path d="M402 2226 c6 -11 17 -27 25 -34 11 -11 13 -11 13 1 0 8 -7 17 -15 21
-8 3 -12 11 -9 19 3 8 -2 14 -10 14 -12 0 -13 -4 -4 -21z"/>
<path d="M1085 2213 c-31 -11 -49 -12 -82 -4 -23 6 -61 10 -85 10 -37 -1 -33
-3 27 -12 110 -16 159 -14 179 6 20 20 15 20 -39 0z"/>
<path d="M1267 2197 c-3 -9 -2 -17 4 -17 6 0 7 -6 3 -12 -4 -7 1 -6 12 3 10 9
26 19 34 23 8 3 3 4 -12 2 -15 -1 -29 2 -31 7 -2 6 -6 3 -10 -6z"/>
<path d="M1191 2181 c-7 -5 -22 -6 -32 -4 -10 3 -19 0 -19 -6 0 -6 7 -8 17 -4
12 5 14 3 8 -7 -6 -10 -4 -11 6 -4 8 5 22 7 33 5 11 -1 16 2 12 8 -4 6 0 11 9
11 9 0 13 -4 10 -10 -3 -5 -1 -10 5 -10 7 0 10 6 8 13 -6 15 -38 20 -57 8z"/>
<path d="M960 2162 c0 -6 -12 -13 -27 -15 -16 -2 4 -5 42 -6 l70 -1 -29 -23
c-20 -17 -27 -28 -21 -38 8 -12 6 -12 -8 -1 -9 8 -22 10 -28 6 -8 -5 -9 -3 -4
6 6 10 -1 11 -36 5 -24 -5 -68 -8 -96 -8 -29 1 -53 -3 -53 -8 0 -9 36 -14 73
-11 9 1 17 -4 17 -10 0 -7 6 -3 14 8 8 10 17 16 20 13 3 -3 0 -14 -8 -24 -12
-17 -16 -18 -31 -5 -16 14 -17 12 -11 -26 8 -47 -4 -84 -41 -128 l-26 -31 24
-3 c13 -1 41 -7 62 -14 50 -15 56 -5 13 22 -23 13 -44 19 -58 16 l-23 -6 22
11 c12 6 27 24 33 39 6 14 28 55 49 89 36 58 39 60 45 37 7 -30 -13 -85 -43
-115 -12 -12 -16 -21 -11 -21 20 0 121 121 148 177 8 17 24 35 35 40 16 7 9
10 -32 11 -29 0 -59 6 -67 13 -9 7 -14 8 -14 1z"/>
<path d="M1198 2134 c-3 -3 -16 -7 -29 -8 -33 -5 -91 -31 -84 -38 4 -3 1 -9
-6 -14 -7 -4 -10 -3 -6 3 4 6 0 16 -8 23 -13 11 -15 7 -15 -24 0 -45 -21 -87
-57 -116 -28 -22 -28 -22 -3 -15 24 7 124 108 146 147 5 10 13 15 18 11 4 -4
11 -1 17 7 8 13 10 13 18 0 11 -17 -5 -31 -26 -23 -8 3 -13 -3 -13 -17 0 -30
-36 -88 -61 -95 -26 -9 -46 -45 -24 -45 9 0 27 -11 41 -25 14 -14 33 -25 42
-25 12 1 3 13 -27 40 -24 22 -38 40 -32 40 12 0 87 59 144 113 15 15 30 27 32
27 7 0 -14 -63 -29 -85 -8 -12 -29 -29 -48 -38 -27 -14 -29 -17 -11 -17 22 0
147 79 170 108 22 26 23 8 3 -36 -15 -33 -29 -47 -62 -62 -40 -18 -41 -20 -15
-20 16 0 57 17 90 37 34 20 72 43 85 50 24 15 20 38 -5 29 -9 -4 -22 -1 -29 5
-18 15 -105 18 -123 5 -11 -8 -13 -8 -7 1 4 7 -2 20 -13 30 -15 13 -17 19 -8
25 8 5 7 8 -6 8 -12 0 -17 -6 -15 -17 2 -11 -2 -17 -10 -15 -8 1 -11 -2 -6 -9
4 -7 2 -10 -7 -7 -8 3 -13 15 -12 27 3 22 1 25 -9 15z"/>
<path d="M720 2065 c0 0 9 -24 20 -53 23 -59 20 -86 -17 -149 l-24 -43 36 0
c20 0 44 -4 54 -9 9 -5 23 -6 30 -1 11 6 8 11 -10 20 -12 7 -33 16 -45 19 -23
6 -23 6 17 90 48 103 50 119 9 113 -16 -2 -30 0 -30 5 0 5 -9 9 -20 9 -11 0
-20 0 -20 -1z m63 -44 c-18 -21 -33 -19 -33 5 0 8 10 14 25 14 24 0 24 -1 8
-19z"/>
<path d="M1488 2053 c-10 -2 -18 -11 -18 -18 0 -41 -120 -118 -154 -98 -6 3 3
-9 20 -28 18 -19 37 -44 43 -56 20 -39 30 -25 13 18 -9 23 -25 45 -36 49 -17
7 -15 9 14 9 20 1 44 7 55 15 30 20 145 65 145 56 0 -26 -56 -71 -106 -86
l-54 -15 20 -26 c11 -14 20 -34 20 -43 0 -15 18 -30 35 -30 2 0 -3 20 -12 45
-9 28 -21 45 -31 46 -10 0 15 7 53 16 39 8 94 22 123 32 28 10 52 15 52 11 0
-13 -56 -59 -85 -70 -16 -6 -40 -8 -53 -5 -36 9 -43 -3 -22 -38 11 -18 20 -39
20 -47 0 -8 8 -20 18 -27 17 -10 18 -8 7 33 -6 24 -19 49 -28 56 -15 11 -9 13
40 14 72 1 175 22 168 35 -3 5 1 6 9 3 21 -8 1 -39 -39 -58 -31 -16 -128 -29
-120 -16 2 3 -2 7 -10 7 -10 0 -9 -6 6 -25 10 -14 19 -39 19 -57 0 -21 6 -35
16 -39 14 -6 16 -1 10 36 -4 23 -11 47 -16 53 -5 7 24 11 93 13 56 1 111 5
122 9 18 5 18 4 6 -11 -28 -34 -70 -47 -127 -42 -49 4 -55 2 -48 -12 4 -9 8
-33 8 -52 1 -52 19 -66 28 -21 4 24 2 43 -9 59 -14 22 -13 23 5 13 11 -6 67
-12 126 -13 58 -2 106 -4 106 -5 0 -1 -16 -11 -35 -23 -35 -21 -78 -24 -140
-7 -18 4 -20 0 -18 -50 2 -70 18 -90 26 -31 3 24 2 47 -4 53 -18 18 -9 25 14
11 22 -13 106 -28 180 -30 48 -1 47 -10 -3 -30 -51 -20 -66 -20 -115 3 l-40
18 1 -61 c2 -84 3 -87 19 -37 10 33 11 50 3 65 -10 19 -10 20 6 7 23 -19 186
-62 211 -55 20 5 20 5 0 -11 -30 -24 -65 -29 -109 -16 -23 6 -47 13 -54 14 -8
2 -18 10 -23 18 -5 9 -6 1 -3 -22 4 -20 1 -46 -5 -58 -7 -13 -8 -27 -3 -37 7
-13 12 -8 25 25 9 22 14 48 10 58 -6 17 -5 17 13 1 10 -9 35 -21 54 -26 19 -6
61 -22 93 -35 50 -21 55 -25 35 -31 -45 -12 -86 -6 -122 19 -20 13 -36 21 -36
17 0 -4 -4 -1 -9 7 -6 10 -9 2 -9 -24 0 -20 -5 -42 -11 -48 -13 -13 -15 -47
-3 -47 15 0 45 77 36 92 -4 8 0 7 12 -3 21 -18 147 -84 179 -95 19 -6 19 -6
-4 -15 -34 -13 -87 -1 -122 28 -34 29 -40 16 -6 -14 40 -36 140 -103 153 -103
8 0 11 6 7 16 -3 9 0 20 8 25 9 6 1 7 -20 2 -25 -4 -32 -3 -27 5 4 7 15 12 25
12 23 0 24 60 1 61 -10 0 -11 2 -2 6 6 2 12 9 12 14 0 6 -8 6 -19 -1 -12 -6
-22 -6 -25 -1 -8 12 3 41 16 41 5 0 1 11 -9 24 -10 13 -22 22 -28 19 -5 -2 -2
2 8 10 19 16 24 32 6 21 -7 -4 -10 -1 -7 7 3 8 12 12 19 11 8 -2 10 0 6 5 -5
4 -14 8 -20 8 -7 0 -12 7 -12 15 0 8 -15 18 -32 24 -26 7 -33 14 -33 33 0 14
4 21 10 18 6 -3 10 2 10 11 0 10 -3 14 -7 11 -3 -4 -15 0 -25 10 -10 9 -21 13
-25 10 -10 -10 -33 13 -33 33 0 10 6 21 13 23 9 4 9 6 0 6 -7 1 -10 8 -7 16 5
12 0 14 -25 9 -36 -8 -62 16 -53 48 2 10 -1 18 -7 18 -7 0 -9 5 -6 10 4 6 11
8 16 5 5 -4 9 -2 9 4 0 5 -9 9 -20 8 -11 -1 -20 -7 -20 -14 0 -17 -6 -16 -29
4 -11 9 -18 21 -15 25 9 14 -26 48 -48 48 -11 0 -16 -4 -13 -10 3 -5 -1 -10
-9 -10 -10 0 -13 6 -9 17 4 11 3 14 -5 9 -7 -4 -12 -2 -12 3 0 6 14 11 31 11
19 0 28 4 24 11 -4 6 -14 8 -22 5 -8 -3 -23 -1 -34 5 -16 8 -18 14 -9 24 8 9
8 15 0 20 -6 4 -9 1 -8 -7 2 -8 -5 -12 -19 -10 -21 3 -28 -7 -24 -32 1 -5 -5
-4 -13 4 -15 11 -20 7 -17 -13 1 -5 -3 -6 -9 -2 -8 5 -8 11 1 21 6 7 15 11 20
8 5 -3 9 -1 9 5 0 5 3 18 6 28 5 17 5 17 -6 0 -13 -21 -32 -13 -23 9 5 14 3
15 -15 5 -27 -15 -29 -14 -35 9 -5 20 -15 22 -49 13z"/>
<path d="M680 2021 c-24 -7 -24 -7 -5 -16 11 -4 25 -7 30 -6 6 1 5 -3 -1 -9
-7 -7 -25 -9 -50 -4 -32 6 -35 8 -19 15 24 9 9 11 -22 3 -13 -4 -23 -13 -23
-21 0 -9 6 -13 15 -9 23 9 18 -3 -15 -34 -28 -26 -35 -28 -31 -6 1 5 -4 5 -11
-1 -7 -6 -21 -9 -31 -8 -9 2 -15 -1 -11 -6 3 -5 10 -7 15 -4 5 4 9 0 9 -8 0
-20 -82 -12 -117 10 -26 17 -26 17 -14 -5 6 -12 21 -22 32 -22 27 0 89 -29 89
-42 0 -5 -4 -7 -9 -4 -5 4 -16 3 -24 0 -13 -5 -13 -10 5 -40 20 -33 21 -77 5
-142 -5 -19 -3 -21 13 -12 10 5 37 10 59 10 42 0 62 14 35 24 -27 10 -59 7
-82 -9 -21 -16 -21 -16 -7 12 8 16 17 72 21 127 5 86 8 96 21 84 8 -9 18 -30
22 -49 6 -30 4 -52 -13 -119 -3 -12 7 -14 55 -12 32 2 59 7 59 12 0 14 -69 21
-91 10 -20 -11 -20 -11 -4 14 9 13 21 51 26 83 5 32 13 76 17 98 l9 40 11 -28
c22 -53 10 -144 -23 -170 -5 -5 4 -6 22 -3 17 3 44 1 61 -3 51 -15 59 5 9 22
-25 8 -49 12 -53 9 -4 -4 -4 2 0 13 4 11 14 38 21 60 8 22 20 58 29 80 27 72
22 82 -34 66z"/>
<path d="M140 2011 c-25 -7 -25 -7 -2 -13 12 -3 22 -3 22 1 0 4 17 8 37 9 21
2 39 5 42 7 7 7 -71 4 -99 -4z"/>
<path d="M455 1985 l-30 -13 28 -1 c15 -1 27 4 27 9 0 6 5 10 11 10 5 0 7 -4
4 -10 -3 -5 1 -10 10 -10 20 0 14 24 -6 27 -8 1 -27 -4 -44 -12z"/>
<path d="M1154 1934 c16 -9 39 -28 51 -41 12 -14 27 -24 34 -22 7 3 -1 18 -22
42 -25 27 -43 37 -63 37 l-29 -1 29 -15z"/>
<path d="M1267 1905 c51 -53 70 -58 42 -11 -15 27 -60 56 -84 56 -1 0 18 -20
42 -45z"/>
<path d="M984 1915 c22 -8 43 -21 48 -29 9 -17 38 -22 38 -8 0 23 -48 52 -86
52 l-39 -1 39 -14z"/>
<path d="M890 1911 c-25 -8 -25 -8 7 -15 17 -4 37 -14 44 -22 6 -8 21 -14 33
-14 19 1 18 3 -12 30 -34 32 -34 32 -72 21z"/>
<path d="M441 1834 c-16 -16 -19 -24 -10 -24 11 0 11 -2 -1 -10 -11 -7 -11
-10 -2 -10 7 0 10 -5 7 -10 -4 -6 -15 -8 -26 -5 -25 8 -24 0 7 -41 20 -26 26
-46 27 -85 1 -39 3 -48 12 -36 6 9 10 58 9 121 -1 88 2 108 15 116 13 8 14 9
1 9 -8 -1 -26 -12 -39 -25z"/>
<path d="M1028 1830 c-294 -54 -520 -259 -595 -540 -27 -100 -24 -284 6 -380
72 -232 229 -404 440 -480 281 -102 569 -40 777 166 70 69 90 98 133 185 104
213 108 432 12 634 -98 206 -259 341 -476 399 -72 20 -232 28 -297 16z m165
-58 c-7 -5 -6 -12 5 -22 14 -13 15 -13 10 1 -3 9 -2 22 2 30 6 8 4 17 -3 22
-7 5 -1 5 13 1 14 -3 29 -13 33 -20 5 -9 17 -12 34 -8 18 5 24 3 19 -5 -9 -13
3 -14 23 -2 10 6 22 5 35 -5 11 -8 35 -14 53 -14 17 0 34 -4 37 -8 5 -8 -24
-14 -75 -16 -50 -2 -18 -21 35 -21 30 0 49 3 43 7 -7 5 -3 8 10 8 13 0 22 -5
20 -12 -1 -7 7 -13 18 -13 14 0 19 -6 17 -20 -2 -17 -1 -18 8 -5 9 11 13 12
17 2 2 -6 9 -10 14 -6 5 3 9 1 9 -5 0 -5 8 -12 18 -14 9 -3 4 -5 -13 -6 -16
-1 -36 -5 -42 -9 -7 -4 10 -7 37 -6 28 2 48 -1 45 -6 -3 -5 4 -12 16 -15 11
-4 18 -9 15 -12 -3 -3 -17 2 -30 11 -14 8 -27 12 -30 7 -6 -9 36 -31 59 -31 7
0 17 -10 21 -22 8 -27 35 -49 48 -41 5 4 6 1 2 -5 -3 -5 0 -13 6 -16 7 -4 3
-4 -9 -2 -13 2 -23 0 -23 -5 0 -5 10 -9 21 -9 12 0 28 -8 35 -17 18 -24 17
-33 -1 -33 -26 0 -16 -15 17 -28 44 -16 24 -35 -39 -35 -39 0 -43 -1 -24 -9
13 -5 40 -7 60 -6 29 2 36 -1 39 -17 2 -16 1 -17 -7 -5 -7 9 -11 10 -11 3 0
-7 6 -16 14 -20 8 -4 15 -10 15 -13 0 -3 3 -13 7 -23 4 -12 0 -23 -12 -32 -22
-17 -11 -20 16 -5 16 8 18 8 14 -5 -4 -8 -11 -15 -18 -15 -6 0 -4 -5 5 -10 21
-12 20 -67 -1 -81 -12 -9 -12 -10 3 -5 9 3 17 4 17 2 0 -7 -36 -43 -50 -49 -8
-4 -3 -5 11 -2 20 4 28 0 32 -14 3 -12 -1 -22 -9 -25 -8 -3 -14 0 -14 7 0 9
-20 14 -60 15 -52 2 -60 0 -60 -15 0 -10 -4 -14 -8 -8 -4 6 -15 10 -24 11 -10
0 -33 1 -52 2 -28 2 -34 6 -33 22 1 11 5 20 9 20 5 0 2 10 -7 23 -8 13 -12 26
-9 29 3 4 -5 9 -18 13 -38 13 -56 58 -18 48 12 -3 20 0 20 6 0 7 -6 9 -12 6
-7 -4 -1 5 14 18 18 17 23 27 15 30 -7 3 -2 6 9 6 12 1 25 8 28 17 3 8 2 12
-4 9 -6 -3 -10 0 -10 7 0 10 -2 10 -9 -1 -11 -17 -34 -4 -27 16 4 9 2 11 -6 7
-8 -5 -9 -2 -5 9 3 9 1 19 -5 23 -7 4 -8 3 -4 -4 4 -7 3 -12 -3 -12 -17 0 -22
18 -6 24 8 3 21 -2 30 -10 8 -9 15 -12 15 -7 0 5 -5 14 -12 21 -9 9 -9 12 0
12 6 0 9 7 6 15 -5 11 -2 13 10 9 14 -5 15 -2 6 20 -8 22 -7 26 8 26 14 0 15
2 2 9 -8 6 -17 8 -21 5 -4 -2 -10 0 -14 6 -4 6 5 10 19 10 38 0 32 15 -6 17
-18 1 -60 3 -93 6 -33 2 -73 -1 -89 -6 -27 -9 -28 -11 -10 -19 18 -8 18 -8 -1
-5 -11 1 -20 9 -20 17 0 11 -14 15 -58 17 -32 1 -55 -3 -51 -8 3 -5 1 -9 -5
-9 -5 0 -13 5 -16 10 -3 6 -14 10 -23 10 -15 0 -15 -2 -2 -11 12 -9 11 -10 -7
-6 -13 3 -23 1 -23 -4 0 -5 10 -9 23 -10 l22 0 -23 -10 c-15 -6 -30 -5 -40 1
-12 7 -13 9 -3 10 11 0 11 3 1 15 -10 12 -24 14 -54 10 -23 -3 -61 -7 -85 -10
-24 -2 -49 -9 -55 -15 -12 -12 -29 -13 -22 -1 3 5 -2 12 -12 16 -24 11 -132
14 -132 4 0 -5 -7 -6 -15 -3 -8 4 -17 -1 -21 -10 -3 -9 -13 -16 -21 -16 -8 0
-11 5 -8 10 3 6 -1 10 -9 10 -9 0 -16 4 -16 9 0 15 -32 22 -46 10 -9 -7 -18
-7 -33 1 -24 12 -25 18 -12 54 8 18 15 23 30 19 22 -6 29 12 9 20 -8 3 -7 6 4
6 9 1 20 6 24 13 5 7 3 8 -6 3 -9 -5 -11 -4 -6 3 5 9 13 9 26 2 27 -14 34 -12
20 5 -9 11 -9 15 -1 15 7 0 9 5 6 10 -4 6 7 10 24 10 21 0 31 5 31 15 0 8 -5
15 -12 15 -6 0 -9 3 -6 6 4 3 17 0 30 -7 21 -11 22 -11 9 5 -13 15 -12 16 13
6 15 -5 39 -10 54 -9 23 0 21 2 -13 13 l-40 12 30 8 c16 4 33 12 36 18 4 6 36
14 70 17 46 5 63 10 61 20 -2 9 5 12 22 9 14 -3 27 0 29 6 2 6 8 8 12 4 4 -4
2 -14 -4 -22 -11 -13 -9 -13 13 -3 13 6 20 14 16 17 -5 3 11 6 35 7 43 2 44 1
35 -23 -6 -14 -6 -24 -1 -24 5 0 13 15 17 33 7 31 7 32 17 9 8 -17 8 -26 0
-30z m-485 -319 c13 -12 23 -36 27 -70 l7 -53 -41 0 -41 0 0 45 c0 32 -4 45
-14 45 -10 0 -15 -17 -18 -60 l-3 -60 55 0 55 0 -2 -92 c-3 -128 -6 -135 -52
-148 -49 -13 -98 -3 -116 24 -9 12 -15 44 -15 78 l0 58 40 0 40 0 0 -61 c0
-44 3 -60 13 -57 8 3 13 30 15 76 l3 72 -56 0 -55 0 0 88 c1 114 12 130 96
131 26 1 49 -6 62 -16z m223 -12 c16 -20 19 -40 19 -141 0 -116 -1 -119 -26
-139 -15 -12 -40 -21 -55 -21 l-29 0 0 -340 0 -341 -37 26 -38 25 0 481 0 481
74 -4 c62 -3 76 -7 92 -27z m205 15 c17 -13 19 -30 22 -205 l3 -191 -40 0 -41
0 0 95 c0 78 -3 95 -15 95 -12 0 -15 -17 -15 -95 l0 -95 -41 0 -41 0 3 186 c4
181 5 186 28 205 28 23 108 26 137 5z m214 -6 c16 -16 20 -33 20 -85 l0 -65
-40 0 -39 0 6 60 c5 55 4 60 -15 60 -19 0 -20 -6 -18 -157 1 -133 3 -158 16
-158 12 0 15 14 14 73 l0 72 38 0 38 0 0 -78 c0 -97 -14 -116 -90 -116 -34 0
-56 6 -70 19 -19 17 -20 30 -20 187 0 155 2 170 20 188 15 15 33 20 70 20 37
0 55 -5 70 -20z m190 -15 c0 -32 -2 -35 -30 -35 -29 0 -30 -1 -30 -50 0 -49 1
-50 30 -50 25 0 30 -4 30 -25 0 -21 -5 -25 -30 -25 l-30 0 0 -66 0 -65 28 3
c24 3 27 -1 30 -29 l3 -33 -70 0 -71 0 0 205 0 205 70 0 70 0 0 -35z m-1025
-110 c0 -25 -3 -45 -7 -45 -5 0 -8 -8 -8 -17 0 -10 4 -14 8 -8 4 6 13 11 21
13 11 2 12 0 4 -10 -6 -7 -9 -20 -8 -29 2 -12 -3 -15 -21 -11 -13 2 -21 8 -19
13 3 4 -3 12 -12 18 -16 9 -17 13 -4 43 7 18 15 43 18 56 9 40 28 24 28 -23z
m-47 -103 c-4 -15 -1 -18 17 -14 30 5 36 -6 25 -51 -4 -21 -4 -35 1 -31 5 3 9
-4 9 -15 0 -11 4 -22 10 -26 5 -3 6 -13 3 -22 -4 -11 -3 -14 5 -9 7 4 12 3 12
-3 0 -17 107 -34 140 -22 27 9 30 8 36 -15 4 -14 1 -31 -6 -39 -7 -8 -8 -15
-2 -15 19 0 10 -51 -12 -61 l-21 -10 21 4 c18 4 21 -1 23 -32 0 -20 2 -58 4
-86 1 -30 -3 -55 -10 -63 -15 -16 -17 -36 -3 -27 6 3 10 -1 10 -9 0 -8 -8 -20
-17 -25 -17 -10 -17 -10 0 -11 12 0 17 -8 17 -31 0 -20 -4 -28 -12 -23 -7 5
-9 2 -5 -9 4 -11 2 -14 -9 -10 -9 3 -20 16 -25 30 -5 13 -20 28 -34 33 -14 5
-28 18 -32 27 -3 10 -17 30 -30 44 -14 15 -23 35 -21 44 2 10 -4 20 -12 22
-12 4 -12 3 -1 -5 7 -6 9 -12 4 -15 -8 -5 -34 32 -37 53 -2 10 -28 76 -38 93
-5 11 -7 22 -4 25 3 3 6 0 6 -6 0 -7 6 -12 13 -12 6 1 2 9 -10 19 -28 23 -29
31 -5 32 16 0 16 1 -1 8 -10 4 -18 10 -18 14 0 4 -2 14 -5 22 -4 8 -4 28 -1
43 3 15 -1 41 -8 59 -11 26 -11 32 0 36 7 3 17 2 21 -1 5 -4 1 1 -10 11 -17
16 -18 21 -6 57 13 40 27 56 18 22z m466 -131 c12 -10 13 -18 5 -33 -8 -15 -8
-19 0 -13 7 4 19 1 28 -7 9 -7 18 -11 21 -8 3 3 9 -2 15 -11 13 -20 -31 -66
-58 -61 -20 4 -19 3 0 -11 16 -13 18 -19 9 -34 -6 -10 -10 -33 -9 -51 2 -29 0
-32 -26 -32 -18 0 -32 7 -39 20 -12 22 -5 60 11 60 6 0 7 5 4 10 -4 6 -11 8
-16 5 -5 -4 -9 -1 -9 5 0 6 7 13 15 16 14 6 13 8 -2 20 -11 8 -13 13 -5 14 6
0 12 5 12 11 0 5 -4 8 -9 5 -5 -3 -8 5 -7 19 0 14 5 25 10 25 5 0 3 7 -4 15
-11 13 -10 14 3 10 8 -4 18 -2 22 4 3 6 0 11 -8 11 -8 0 -17 6 -20 13 -6 17
36 15 57 -2z m220 -77 c9 -3 16 -13 16 -21 0 -12 -7 -14 -30 -9 -42 8 -77 -8
-100 -46 -20 -33 -26 -93 -12 -115 11 -18 55 -25 85 -14 22 9 27 8 27 -4 0 -9
-12 -20 -26 -25 -106 -41 -168 48 -111 160 30 62 98 94 151 74z m209 -14 c32
-25 41 -66 27 -119 -39 -147 -239 -145 -216 3 17 105 121 169 189 116z m123 3
c-2 -10 -12 -56 -21 -103 -24 -129 -24 -130 -40 -130 -19 0 -19 0 6 136 19 98
25 114 41 114 14 0 18 -5 14 -17z m172 -1 c-3 -13 -13 -16 -46 -14 -44 3 -45
2 -56 -50 -6 -27 -5 -28 38 -28 36 0 44 -3 40 -15 -4 -10 -20 -15 -49 -15
l-43 0 -7 -55 c-5 -46 -10 -55 -27 -55 -16 0 -19 5 -15 23 3 12 13 63 22 112
9 50 18 95 20 101 2 7 28 12 65 13 53 0 61 -2 58 -17z m153 13 c4 -3 5 -13 2
-21 -5 -13 -15 -14 -49 -9 -25 3 -44 2 -44 -3 0 -5 -3 -24 -6 -41 -6 -31 -6
-31 35 -31 30 0 41 -4 41 -15 0 -11 -12 -15 -45 -15 l-44 0 -7 -51 c-6 -45
-25 -72 -40 -57 -3 3 5 59 17 125 l22 120 55 2 c29 0 58 -1 63 -4z m-691 -67
c0 -5 5 -6 10 -3 6 3 10 4 10 1 0 -2 3 -13 7 -23 6 -16 5 -16 -10 -4 -15 12
-17 12 -11 -3 10 -27 -4 -18 -20 12 -13 25 -13 29 0 29 8 0 14 -4 14 -9z m15
-52 c8 4 15 1 15 -6 0 -6 -4 -8 -10 -5 -5 3 -15 -7 -22 -22 -7 -15 -13 -30
-15 -32 -6 -8 -53 50 -53 66 0 11 4 13 13 6 14 -12 48 -13 41 -2 -2 5 -12 5
-22 2 -15 -6 -15 -5 -3 10 13 16 15 16 28 -2 7 -12 20 -18 28 -15z m491 -71
c-3 -9 -12 -13 -18 -10 -7 4 -6 1 3 -7 9 -8 15 -26 13 -45 -2 -31 12 -40 28
-18 4 6 8 -1 9 -15 0 -16 3 -19 6 -10 3 8 17 25 30 37 12 12 23 31 23 43 0 11
5 20 11 20 8 0 8 4 1 13 -9 10 -3 13 26 13 20 1 29 -1 20 -3 -20 -5 -24 -18
-8 -28 6 -4 5 -13 -3 -25 -16 -27 -30 -25 -23 3 5 18 4 18 -5 -3 -6 -14 -15
-32 -19 -41 -5 -10 -4 -21 3 -29 10 -10 8 -10 -10 -1 -14 7 -24 8 -28 1 -3 -5
1 -10 9 -10 9 0 13 -6 10 -15 -6 -16 -25 -16 -36 0 -4 6 -8 -2 -8 -17 0 -16
-5 -28 -11 -28 -5 0 -8 -4 -5 -9 6 -8 -21 -26 -35 -23 -4 1 -5 -8 -2 -19 4
-14 1 -20 -8 -18 -23 4 -52 -12 -87 -48 -18 -18 -45 -36 -60 -40 -14 -3 -35
-15 -46 -25 -15 -13 -22 -15 -27 -6 -6 9 -10 8 -15 -5 -4 -12 -10 -14 -18 -8
-7 6 -17 5 -29 -4 -11 -8 -34 -11 -63 -7 -26 3 -49 0 -53 -5 -7 -12 -114 -26
-106 -14 3 5 -23 12 -58 16 -34 4 -74 9 -89 10 -34 4 -64 30 -45 39 6 4 2 4
-10 2 -16 -3 -20 1 -18 13 15 64 16 67 6 46 -8 -16 -10 -17 -10 -3 -1 9 3 28
9 42 6 17 6 26 -1 26 -6 0 -6 7 1 21 8 13 8 30 2 47 -10 31 -10 82 2 100 4 7
2 12 -3 12 -6 0 -11 7 -11 15 0 11 12 15 48 15 34 0 43 -3 32 -10 -13 -9 -13
-10 0 -11 8 -1 19 -1 23 0 5 1 6 -3 2 -9 -3 -5 0 -10 7 -10 10 0 10 -2 1 -8
-19 -12 1 -33 36 -37 21 -3 29 -1 25 7 -5 7 1 9 19 5 14 -4 31 -8 39 -10 7 -2
10 -2 5 0 -13 8 3 22 18 17 9 -4 18 2 22 14 7 17 10 18 21 6 11 -12 10 -14 -3
-14 -18 0 -20 -16 -4 -26 7 -4 16 1 21 10 5 9 16 16 25 16 15 0 15 -1 0 -12
-15 -11 -12 -13 20 -14 21 -1 49 -4 63 -8 19 -5 21 -4 5 2 -20 9 -20 9 1 16
12 3 33 2 48 -4 34 -13 46 -12 24 1 -19 11 -13 39 8 39 8 0 13 -3 13 -7 -6
-35 26 -48 67 -27 33 18 37 18 31 -1 -5 -12 -1 -12 21 -4 15 6 30 16 34 22 6
9 10 9 17 -2 5 -8 11 -9 15 -3 3 6 0 12 -6 15 -10 3 -10 7 -1 17 6 7 9 20 6
29 -4 14 -3 14 6 1 9 -13 11 -12 11 4 0 12 5 16 15 12 8 -3 15 0 15 6 0 6 3 9
6 5 4 -3 4 -13 0 -22z"/>
<path d="M800 1659 c77 -33 86 -36 105 -28 20 9 20 9 0 6 -11 -2 -31 2 -45 8
-14 7 -38 15 -55 18 -29 6 -29 6 -5 -4z"/>
<path d="M1380 1550 c0 -5 11 -10 25 -10 14 0 25 -6 25 -12 0 -9 4 -8 10 2 7
11 4 17 -13 22 -34 9 -47 9 -47 -2z"/>
<path d="M1590 1428 c0 -11 92 -10 109 1 8 5 -9 8 -48 7 -33 0 -61 -4 -61 -8z"/>
<path d="M840 1305 c0 -96 3 -115 15 -115 12 0 15 19 15 115 0 96 -3 115 -15
115 -12 0 -15 -19 -15 -115z"/>
<path d="M1050 1360 c0 -47 3 -60 15 -60 12 0 15 13 15 60 0 47 -3 60 -15 60
-12 0 -15 -13 -15 -60z"/>
<path d="M1273 980 c-32 -13 -63 -68 -63 -112 0 -48 34 -75 77 -61 64 21 98
134 51 167 -25 18 -33 19 -65 6z m41 -36 c9 -3 16 -11 16 -16 0 -6 -7 -8 -14
-5 -10 4 -13 1 -9 -9 3 -7 1 -14 -5 -14 -13 0 -21 21 -14 38 5 14 5 14 26 6z
m-38 -50 c-3 -7 3 -18 12 -23 19 -11 17 -12 -14 -16 -17 -2 -22 3 -22 24 0 14
2 29 5 34 7 12 25 -4 19 -19z"/>
<path d="M1413 684 c27 -9 51 -13 55 -10 9 10 0 13 -53 19 l-50 6 48 -15z"/>
<path d="M357 1752 c5 -21 -24 -55 -49 -59 -12 -2 -26 -7 -31 -12 -4 -4 5 -6
21 -3 23 3 35 -3 60 -32 31 -36 36 -54 34 -124 l-1 -32 26 20 c14 11 38 20 53
20 16 0 30 7 34 15 4 13 -2 14 -37 9 -23 -4 -46 -12 -52 -19 -7 -8 -11 13 -13
68 -2 87 -18 161 -32 152 -4 -3 -10 -2 -13 2 -2 5 -2 2 0 -5z"/>
<path d="M260 1660 c-22 -7 -22 -8 -5 -10 11 -1 29 -2 40 -1 15 2 17 0 6 -7
-11 -8 -11 -11 0 -16 8 -3 -3 -4 -23 -1 -37 6 -62 -10 -34 -21 8 -3 12 -12 9
-20 -3 -8 -9 -12 -13 -9 -4 3 -10 -1 -13 -9 -4 -10 1 -12 16 -9 18 4 19 3 7
-6 -8 -6 -10 -11 -5 -11 6 0 3 -5 -5 -10 -13 -9 -13 -11 0 -20 8 -5 10 -10 5
-10 -6 0 -17 6 -24 13 -10 10 -12 9 -9 -3 2 -8 19 -24 38 -35 38 -22 72 -80
74 -125 l1 -28 33 29 c18 16 39 29 46 29 8 0 17 7 20 16 5 12 2 15 -10 10 -8
-3 -22 -6 -30 -6 -8 0 -23 -9 -34 -20 -20 -20 -20 -20 -20 2 0 21 -41 142 -62
181 -17 33 1 32 37 -3 32 -31 45 -63 49 -123 l1 -23 34 23 c19 13 39 23 46 23
7 0 19 8 26 17 12 15 12 16 -4 10 -10 -4 -27 -7 -38 -7 -10 0 -29 -10 -41 -22
-15 -15 -20 -17 -15 -5 6 15 -22 160 -38 200 -8 18 -24 20 -65 7z"/>
<path d="M462 1604 c-30 -21 -28 -40 3 -20 13 9 38 16 54 16 16 0 33 5 36 10
10 16 -68 12 -93 -6z"/>
<path d="M180 1496 c6 -6 4 -16 -7 -30 -10 -12 -11 -15 -3 -8 18 15 31 16 28
0 -4 -19 -22 -36 -32 -30 -5 3 -6 0 -2 -7 4 -6 13 -8 19 -4 16 10 41 13 32 5
-4 -4 -10 -7 -13 -7 -4 -1 -17 -7 -29 -15 -21 -13 -21 -16 -6 -32 9 -10 13
-21 10 -25 -4 -3 -7 -1 -7 5 0 7 -4 12 -9 12 -5 0 -7 -9 -4 -21 4 -12 11 -18
20 -15 8 4 13 1 11 -5 -2 -6 -8 -11 -13 -11 -29 0 -45 -20 -41 -51 2 -18 9
-31 15 -29 18 4 12 -12 -9 -26 -25 -15 -23 -59 2 -65 10 -3 18 -10 18 -16 0
-6 -8 -8 -17 -4 -10 3 -15 3 -11 -2 4 -4 0 -14 -10 -22 -16 -12 -16 -13 1 -7
26 9 20 -3 -10 -21 -19 -11 -21 -14 -7 -10 29 8 49 -31 35 -68 -9 -22 -7 -33
5 -52 9 -14 19 -23 23 -21 4 3 7 -4 7 -15 0 -12 -7 -19 -21 -19 -16 0 -17 -2
-5 -10 8 -5 11 -10 6 -10 -5 0 -1 -9 8 -19 17 -19 17 -19 -6 -15 -12 3 -4 -4
20 -15 41 -20 58 -36 25 -24 -10 3 -15 3 -11 -2 4 -4 3 -14 -3 -21 -9 -11 -6
-16 12 -23 13 -5 18 -10 10 -10 -11 -1 -10 -5 5 -16 18 -14 18 -15 1 -26 -18
-10 -18 -11 0 -24 15 -11 21 -11 34 1 28 25 102 20 155 -11 46 -27 47 -27 41
-6 -3 12 -1 35 3 52 5 17 5 40 1 51 -6 18 -10 14 -20 -25 -8 -26 -11 -54 -7
-64 5 -15 4 -15 -9 2 -9 11 -43 29 -78 41 -125 44 -140 51 -122 58 36 13 93 6
128 -18 19 -13 38 -22 41 -18 3 3 7 -1 7 -9 1 -13 11 25 26 94 3 15 1 27 -4
27 -10 0 -33 -58 -33 -85 0 -18 -1 -18 -17 -1 -10 10 -58 37 -108 61 -84 40
-88 43 -62 50 36 9 95 -8 125 -35 21 -20 29 -17 14 6 -8 13 -123 93 -168 117
l-29 16 37 1 c54 0 89 -16 125 -58 29 -33 32 -35 38 -17 7 20 19 46 39 77 5 9
7 20 4 24 -11 11 -57 -49 -58 -76 l-2 -25 -9 25 c-5 14 -45 52 -90 85 -78 58
-80 60 -51 63 41 4 88 -21 114 -61 11 -18 17 -24 14 -14 -3 10 -6 22 -6 27 0
4 -34 42 -76 84 -64 64 -72 76 -52 76 31 0 83 -33 105 -67 27 -43 43 -58 43
-41 0 8 14 27 30 43 17 16 30 35 30 42 0 19 -70 -28 -70 -47 -1 -10 -4 -9 -13
6 -13 22 -75 98 -119 145 -31 34 -20 36 40 9 33 -15 47 -29 62 -62 16 -35 20
-38 20 -19 0 14 -10 41 -23 60 -64 97 -86 141 -72 141 17 0 85 -58 85 -72 0
-5 7 -25 16 -43 l15 -32 27 26 c15 14 37 31 47 37 11 7 17 15 14 18 -10 11
-62 -13 -82 -37 -10 -12 -16 -16 -12 -9 9 16 -81 201 -101 209 -8 3 -12 8 -9
12 2 4 -3 8 -11 8 -10 0 -11 -4 -4 -11z"/>
<path d="M1921 1407 c-1 -15 -8 -42 -17 -58 -25 -49 -12 -67 14 -21 19 34 21
47 13 74 -9 33 -9 33 -10 5z"/>
<path d="M1950 1323 c0 -12 -11 -35 -25 -51 -16 -19 -23 -36 -19 -47 6 -14 10
-13 30 12 13 15 24 42 24 58 1 29 1 29 13 8 17 -30 125 -123 162 -139 l30 -13
-45 -1 c-53 0 -93 23 -122 71 l-21 34 -13 -30 c-6 -17 -22 -39 -33 -49 -18
-16 -29 -46 -17 -46 16 0 66 59 67 80 1 20 2 21 6 4 6 -32 149 -175 168 -168
14 6 14 8 0 24 -8 9 -12 20 -8 24 5 4 3 6 -2 4 -6 -2 -10 2 -10 7 0 6 5 9 12
9 6 -1 9 5 6 12 -3 9 2 14 18 14 l23 0 -22 16 c-22 15 -32 41 -11 28 6 -3 3 6
-7 21 -16 24 -19 25 -30 11 -10 -15 -12 -15 -18 -1 -3 9 -2 13 4 10 6 -3 10
-2 10 3 0 11 37 25 60 23 13 -2 13 -1 0 8 -8 5 -18 7 -24 4 -5 -4 -7 3 -4 15
4 14 2 19 -8 15 -7 -3 -13 -8 -12 -11 3 -24 -6 -32 -31 -32 -46 0 -79 16 -116
57 -31 34 -35 36 -35 16z"/>
<path d="M338 1229 c-32 -16 -38 -25 -38 -52 l1 -32 16 27 c9 15 27 32 40 39
13 7 23 18 23 26 0 16 3 16 -42 -8z"/>
<path d="M88 1186 c10 -16 9 -30 -3 -38 -6 -5 -5 -8 3 -8 7 0 10 -4 7 -10 -3
-5 -2 -10 3 -10 5 0 9 17 8 38 0 23 -6 39 -13 39 -7 0 -9 -5 -5 -11z"/>
<path d="M1973 1143 c-3 -10 -19 -32 -36 -50 -44 -47 -28 -59 21 -14 23 21 42
34 42 29 0 -5 19 -34 43 -63 23 -30 50 -64 59 -77 16 -23 17 -23 35 -4 16 17
16 18 1 13 -10 -3 -20 -1 -24 5 -4 6 -3 8 3 5 6 -4 19 0 29 8 18 13 17 14 -11
10 l-30 -5 28 15 c32 19 33 20 6 22 -62 5 -139 59 -139 98 0 22 -20 28 -27 8z"/>
<path d="M332 1057 c-27 -28 -32 -39 -26 -62 l7 -27 14 32 c7 18 20 38 29 45
9 6 15 19 13 29 -3 14 -10 11 -37 -17z"/>
<path d="M1945 1024 c-53 -58 -56 -71 -9 -41 26 16 41 34 45 53 l7 29 1 -27
c1 -26 53 -119 101 -180 24 -31 14 -36 -30 -13 -31 16 -65 58 -73 90 -4 19 -5
19 -6 -2 -1 -22 51 -139 82 -183 19 -28 34 -21 18 8 -9 17 -6 24 20 46 24 20
28 30 20 39 -8 10 -7 17 2 26 9 10 9 12 -3 9 -10 -2 -16 6 -17 27 -2 29 -2 29
7 5 7 -23 11 -23 14 -1 0 5 5 13 10 18 6 5 6 2 1 -7 -8 -13 -7 -13 8 -1 18 15
23 26 7 16 -5 -3 -10 0 -10 7 0 10 -2 10 -8 1 -19 -30 -132 53 -132 98 0 32
-14 27 -55 -17z"/>
<path d="M1956 955 c-9 -14 -27 -27 -40 -31 -13 -3 -26 -14 -29 -25 -6 -23 -4
-23 36 -3 40 21 36 16 47 53 10 37 7 39 -14 6z"/>
<path d="M361 885 c-17 -29 -19 -43 -12 -68 6 -22 9 -25 10 -12 1 12 9 37 20
57 25 50 10 70 -18 23z"/>
<path d="M1942 879 c-7 -11 -28 -27 -47 -36 -54 -26 -53 -45 1 -26 32 11 46
21 50 40 5 18 9 21 15 11 5 -7 9 -8 9 -3 0 6 -4 15 -8 22 -6 9 -11 7 -20 -8z"/>
<path d="M1950 835 c0 -9 7 -30 16 -47 9 -17 22 -52 30 -79 10 -32 24 -55 44
-69 17 -12 30 -17 30 -11 0 6 -4 11 -10 11 -5 0 -10 5 -10 11 0 5 5 7 11 3 7
-4 10 -1 7 7 -3 8 -10 13 -16 12 -5 -1 -13 4 -16 12 -4 10 1 15 14 15 28 0 25
29 -3 39 -31 12 -77 67 -77 92 0 10 -4 19 -10 19 -5 0 -10 -7 -10 -15z"/>
<path d="M1897 785 c-15 -14 -36 -25 -46 -25 -11 0 -22 -7 -25 -16 -5 -13 -1
-14 27 -9 17 4 39 13 47 21 14 12 18 2 34 -84 10 -53 22 -103 28 -110 6 -7 9
-15 6 -17 -8 -8 -48 26 -62 53 -18 36 -28 114 -14 105 7 -3 8 -1 4 6 -6 9 -13
9 -30 -3 -13 -8 -36 -16 -51 -18 -16 -2 -30 -9 -33 -15 -6 -19 49 -16 78 4 22
16 23 16 17 -1 -4 -9 -3 -38 2 -64 5 -26 12 -72 15 -102 l5 -55 -30 34 c-29
31 -31 38 -27 96 4 62 3 63 -16 49 -11 -8 -35 -14 -52 -14 -17 0 -38 -7 -45
-16 -12 -15 -9 -16 30 -10 24 3 49 10 55 15 8 7 11 -23 11 -110 0 -65 -3 -119
-7 -119 -4 0 -15 14 -24 32 -17 33 -22 86 -12 131 6 25 5 27 -15 21 -12 -4
-37 -8 -54 -8 -18 -1 -38 -7 -45 -14 -17 -17 83 -17 101 1 11 10 12 8 3 -9
-16 -30 -34 -188 -26 -221 7 -27 7 -27 16 -4 4 13 5 28 1 33 -3 6 -1 8 4 5 6
-4 16 0 23 8 11 13 14 13 25 -2 8 -10 17 -15 21 -10 4 4 2 7 -4 7 -7 0 -5 8 5
20 10 11 24 20 31 20 12 0 12 3 1 16 -24 29 -19 40 18 39 25 -2 33 1 29 11 -3
8 -2 13 2 11 4 -1 7 1 7 4 0 3 6 13 14 23 12 15 12 16 -5 10 -15 -5 -16 -4 -4
4 10 8 18 7 28 -1 15 -12 48 -20 37 -9 -4 4 -11 8 -16 8 -5 1 -12 2 -15 3 -4
0 -1 8 6 16 7 8 17 12 23 8 6 -4 7 -1 1 8 -15 25 -13 41 5 36 14 -3 17 1 13
19 -2 14 0 24 7 24 21 0 11 15 -19 29 -18 7 -38 29 -49 49 -23 47 -35 96 -22
87 7 -3 8 0 5 9 -7 19 -3 20 -37 -9z"/>
<path d="M474 645 c-4 -31 -2 -51 7 -63 8 -10 3 -8 -11 5 -14 12 -43 25 -65
29 -22 4 -54 13 -72 21 -18 7 -54 12 -81 11 -42 -2 -47 -4 -35 -16 11 -12 16
-12 30 0 14 11 16 11 9 -1 -7 -10 -3 -12 13 -6 26 8 27 -3 4 -22 -17 -14 -17
-14 0 -9 11 3 17 0 17 -10 0 -11 -6 -13 -21 -9 -15 5 -19 4 -15 -4 4 -6 15
-11 24 -12 15 0 14 -1 -2 -8 -15 -6 -11 -9 19 -18 31 -10 36 -9 31 3 -3 9 -2
12 5 9 6 -4 8 -13 5 -21 -6 -15 4 -19 20 -6 5 4 6 3 2 -2 -3 -5 -4 -15 -1 -23
5 -11 9 -11 25 4 28 25 136 24 177 -1 10 -7 11 -3 5 15 -5 13 -9 38 -9 56 0
18 -6 38 -13 45 -9 9 -12 5 -13 -22 -2 -44 -2 -41 7 -65 7 -17 6 -18 -8 -7 -9
7 -47 18 -85 24 -37 6 -86 14 -108 18 l-40 7 37 16 c48 22 75 21 120 -2 21
-10 40 -16 43 -13 9 9 5 111 -4 117 -6 3 -13 -15 -17 -40z"/>
<path d="M590 519 c0 -26 7 -51 18 -63 17 -21 17 -21 -3 -4 -15 12 -47 17
-133 21 -98 3 -115 7 -135 25 -26 24 -37 28 -37 11 0 -5 5 -7 10 -4 6 4 10 -6
10 -22 0 -18 3 -24 9 -15 6 10 10 10 21 -3 10 -12 10 -15 0 -15 -8 0 -11 -3
-8 -6 4 -3 15 -1 27 5 11 7 22 7 25 2 4 -5 0 -12 -6 -14 -7 -3 -3 -6 10 -6 12
-1 22 4 22 9 0 6 8 10 18 10 11 0 13 -3 5 -8 -6 -4 -11 -16 -10 -27 1 -13 -4
-20 -15 -19 -10 1 1 -15 30 -42 25 -24 47 -44 47 -44 1 0 2 6 2 14 0 8 -3 14
-6 13 -4 -1 -18 9 -31 22 -24 22 -22 22 23 -4 l48 -28 22 21 c29 27 74 44 112
42 16 -1 33 -2 36 -1 9 1 -28 105 -38 108 -13 5 -2 -81 11 -89 6 -4 -7 -8 -29
-9 -22 0 -75 -3 -118 -5 -83 -5 -91 3 -36 32 27 13 84 20 114 14 29 -6 34 0
19 28 -7 15 -14 39 -14 54 0 15 -4 30 -10 33 -6 4 -10 -10 -10 -36z"/>
<path d="M1701 499 c-14 -5 -36 -7 -50 -4 -14 3 -32 1 -40 -4 -20 -13 49 -26
81 -16 19 7 21 5 11 -6 -6 -8 -14 -32 -18 -54 -4 -22 -11 -56 -17 -75 -6 -19
-11 -47 -10 -62 1 -39 -14 -35 -28 8 -12 35 -10 79 6 118 5 13 4 17 -3 13 -17
-11 -75 -196 -68 -217 4 -13 2 -20 -6 -20 -7 0 -10 3 -7 6 4 3 0 21 -8 41 -17
39 -12 83 14 123 25 38 24 51 -3 44 -13 -3 -33 0 -45 6 -12 6 -29 9 -38 5 -27
-10 37 -37 73 -31 23 4 26 3 13 -4 -20 -12 -98 -172 -99 -204 0 -17 -3 -16
-14 9 -15 33 -11 62 17 118 10 20 15 37 11 38 -5 0 1 4 12 9 19 8 19 9 -3 9
-13 1 -36 8 -53 16 -40 21 -59 8 -22 -16 15 -10 35 -19 44 -19 13 0 3 -21 -37
-82 -63 -97 -74 -149 -21 -101 17 16 19 16 28 1 9 -17 49 -14 49 4 0 5 5 6 10
3 6 -3 10 1 10 9 0 11 9 14 38 11 26 -2 42 2 54 15 10 10 13 20 7 22 -6 2 -4
11 4 22 12 16 16 17 35 5 18 -11 24 -11 40 4 10 9 22 14 27 10 4 -5 3 1 -3 13
-9 16 -7 22 9 32 21 14 26 3 7 -17 -11 -11 -10 -12 1 -6 8 4 17 2 22 -6 4 -7
12 -10 16 -5 4 5 2 11 -5 13 -6 3 -10 9 -7 13 3 5 -4 26 -15 47 -23 43 -25 79
-8 120 10 26 18 54 15 52 -1 0 -13 -5 -26 -10z"/>
<path d="M732 413 c5 -21 17 -44 26 -52 15 -12 15 -12 -5 -7 -12 4 -48 0 -80
-8 -32 -8 -81 -16 -110 -18 -28 -2 -49 -5 -47 -7 2 -2 -2 -13 -8 -25 -9 -17
-8 -19 3 -8 7 6 20 12 29 12 13 0 13 -1 0 -10 -9 -6 -10 -10 -3 -10 7 0 16 7
21 16 8 15 10 15 16 -1 3 -9 4 -20 1 -25 -3 -4 5 -6 17 -2 14 3 19 1 14 -6 -6
-10 16 -28 37 -31 4 -1 10 -2 15 -2 4 -1 15 0 26 1 11 1 16 -3 11 -10 -4 -6 3
-20 16 -31 24 -21 34 -25 24 -10 -3 5 -1 12 5 16 5 3 10 2 10 -4 0 -6 6 -8 13
-5 8 3 25 -12 40 -33 19 -26 27 -32 27 -20 0 16 5 17 33 12 40 -9 47 -13 47
-28 0 -7 -4 -6 -11 3 -9 13 -10 13 -6 -2 3 -9 1 -19 -6 -22 -9 -3 -9 -5 0 -5
6 -1 14 3 18 9 3 5 12 7 20 3 8 -3 15 0 15 7 0 7 7 10 15 6 8 -3 19 2 24 12
10 16 10 15 11 -2 0 -17 2 -17 20 4 11 13 20 27 20 32 0 21 45 71 74 84 23 10
26 13 11 14 -21 0 -159 -89 -183 -118 -12 -15 -13 -13 -8 18 8 44 36 74 90 94
l43 16 -36 38 c-20 21 -45 41 -55 45 -18 7 -18 6 -1 -20 9 -16 25 -35 36 -44
17 -16 13 -19 -79 -65 -53 -27 -101 -50 -105 -52 -13 -6 12 39 36 65 11 12 33
25 50 29 51 11 58 25 31 59 -42 53 -46 56 -50 52 -7 -7 16 -61 31 -73 10 -8
-7 -18 -73 -44 -48 -19 -95 -40 -104 -49 -16 -12 -18 -12 -18 0 0 40 65 89
118 89 41 0 45 9 17 42 -14 16 -25 35 -25 43 0 10 -20 25 -35 25 -12 0 31 -80
49 -89 19 -10 19 -11 1 -6 -11 3 -66 -10 -123 -28 -56 -19 -102 -30 -102 -26
0 3 14 21 32 38 30 29 63 41 122 45 21 1 23 3 11 16 -7 8 -20 32 -28 53 -9 20
-20 37 -26 37 -6 0 -6 -13 1 -37z"/>
<path d="M1535 440 c-8 -12 75 -32 88 -21 7 5 16 9 22 9 5 0 11 4 12 9 4 10
-116 13 -122 3z"/>
<path d="M1323 325 c29 -26 52 -31 76 -16 10 7 5 11 -18 16 -17 3 -33 11 -36
16 -4 5 -16 9 -28 9 -21 -1 -21 -2 6 -25z"/>
<path d="M1062 308 c18 -24 35 -34 59 -36 l34 -3 -30 19 c-16 10 -36 26 -44
35 -7 10 -20 17 -29 17 -11 0 -8 -8 10 -32z"/>
<path d="M1230 315 c29 -31 51 -38 81 -26 22 9 23 10 3 10 -12 1 -33 10 -47
21 -14 11 -33 20 -43 20 -15 0 -14 -3 6 -25z"/>
<path d="M1158 300 c20 -19 43 -30 60 -30 26 1 26 1 -10 20 -20 11 -40 24 -43
30 -3 5 -14 10 -23 10 -13 -1 -8 -8 16 -30z"/>
<path d="M1343 254 c-23 -26 -56 -67 -73 -92 l-30 -45 0 42 c0 37 6 49 39 82
21 22 34 39 27 39 -6 0 -48 -38 -93 -85 -64 -65 -83 -80 -83 -64 0 31 29 87
58 109 16 13 20 20 10 20 -9 0 -22 -7 -29 -16 -7 -9 -39 -36 -72 -61 -33 -26
-56 -51 -53 -58 3 -8 -2 -11 -15 -8 -12 3 -19 0 -19 -8 0 -10 15 -14 50 -14
28 -1 50 2 50 6 0 5 -8 6 -18 4 -11 -2 -19 3 -19 11 0 11 3 11 16 1 12 -10 14
-9 8 8 -7 20 -7 20 8 1 8 -11 15 -23 15 -26 0 -4 14 -7 30 -8 22 0 30 4 30 17
0 19 36 26 46 9 4 -6 2 -8 -4 -4 -6 3 -14 1 -18 -6 -4 -7 -4 -10 1 -6 4 4 14
3 22 -3 10 -9 13 -8 13 1 0 9 4 9 17 -1 15 -12 16 -12 10 3 -4 12 -2 15 9 11
9 -3 14 0 12 8 -2 8 3 13 10 12 6 -2 18 -4 25 -5 6 -2 15 -11 19 -20 4 -10 13
-18 20 -17 9 0 10 2 1 5 -7 3 -10 11 -7 19 3 7 1 16 -5 20 -28 17 -1 122 38
152 9 7 12 13 7 13 -5 0 -29 -21 -53 -46z"/>
<path d="M1438 108 c-8 -19 57 -18 74 2 11 12 11 12 -4 1 -15 -11 -21 -11 -33
-1 -12 10 -15 10 -15 -1 0 -12 -2 -12 -9 -1 -7 11 -9 11 -13 0z"/>
</g>
</svg>
